<svg version="1.1" xmlns="http://www.w3.org/2000/svg" viewBox="0 0 627.9564267954324 190.67762074557186" width="1255.9128535908649" height="381.3552414911437">
  <!-- svg-source:excalidraw -->
  
  <defs>
    <style class="style-fonts">
      @font-face {
        font-family: "Virgil";
        src: url("https://excalidraw.com/Virgil.woff2");
      }
      @font-face {
        font-family: "Cascadia";
        src: url("https://excalidraw.com/Cascadia.woff2");
      }
      @font-face {
        font-family: "Assistant";
        src: url("https://excalidraw.com/Assistant-Regular.woff2");
      }
    </style>
    
  </defs>
  <g transform="translate(37.565679725119935 35.999963378906614) rotate(0 52.734375 64.79999999999995)"><text x="0" y="34.762499999999996" font-family="Cascadia, Segoe UI Emoji" font-size="36px" fill="#1e1e1e" text-anchor="start" style="white-space: pre;" direction="ltr" dominant-baseline="alphabetic">110 0</text><text x="0" y="77.96249999999999" font-family="Cascadia, Segoe UI Emoji" font-size="36px" fill="#1e1e1e" text-anchor="start" style="white-space: pre;" direction="ltr" dominant-baseline="alphabetic">011 0</text><text x="0" y="121.1625" font-family="Cascadia, Segoe UI Emoji" font-size="36px" fill="#1e1e1e" text-anchor="start" style="white-space: pre;" direction="ltr" dominant-baseline="alphabetic">101 0</text></g><g stroke-linecap="round"><g transform="translate(111.16565531105744 31.999963378906614) rotate(0 -0.79998779296875 73.60002136230469)"><path d="M-0.57 -0.87 C-0.91 23.58, -2.47 122.66, -2.57 147.16 M1.34 1.29 C1.4 25.91, 0.14 124.41, -0.37 148.68" stroke="#1e1e1e" stroke-width="2" fill="none"></path></g></g><mask></mask><g stroke-linecap="round"><g transform="translate(10.365728553244935 128.00011596679724) rotate(0 80.79998779296875 -0.800018310546875)"><path d="M0.72 -0.56 C27.82 -0.8, 134.99 -1.52, 161.74 -1.83 M-0.37 1.76 C26.67 1.74, 134.09 0.13, 160.87 -0.41" stroke="#1e1e1e" stroke-width="2" fill="none"></path></g></g><mask></mask><g stroke-linecap="round" transform="translate(272.76550882668244 83.19985351562536) rotate(0 157.5999755859375 26.59999999999991)"><path d="M13.3 0 C99.71 -0.08, 187.23 -1.77, 301.9 0 M13.3 0 C128.24 0, 242.41 -0.03, 301.9 0 M301.9 0 C311.88 -1.29, 314.74 4.93, 315.2 13.3 M301.9 0 C310.05 0.91, 316 6.62, 315.2 13.3 M315.2 13.3 C314.57 20.51, 316.46 30.2, 315.2 39.9 M315.2 13.3 C314.57 22.05, 315.43 30.6, 315.2 39.9 M315.2 39.9 C314.23 50.52, 310.79 53.32, 301.9 53.2 M315.2 39.9 C313.53 47.33, 309.87 52.45, 301.9 53.2 M301.9 53.2 C188.05 52.17, 76.47 52.14, 13.3 53.2 M301.9 53.2 C210.58 55.04, 120.8 55.15, 13.3 53.2 M13.3 53.2 C3.08 51.85, 0.28 47.51, 0 39.9 M13.3 53.2 C5.88 53.73, 1.26 49.43, 0 39.9 M0 39.9 C-1.13 29.68, 0.64 21.04, 0 13.3 M0 39.9 C-0.77 30.13, 0.66 21.32, 0 13.3 M0 13.3 C-1.11 4.4, 4.74 -1.73, 13.3 0 M0 13.3 C-1.52 3.41, 3.03 2.18, 13.3 0" stroke="#1e1e1e" stroke-width="2" fill="none"></path></g><g transform="translate(282.70923441261994 88.19985351562536) rotate(0 147.65625 21.59999999999991)"><text x="147.65625" y="34.762499999999996" font-family="Cascadia, Segoe UI Emoji" font-size="36px" fill="#1e1e1e" text-anchor="middle" style="white-space: pre;" direction="ltr" dominant-baseline="alphabetic">1100 0110 1010</text></g><g stroke-linecap="round"><g transform="translate(154.36572855324494 110.39998779296911) rotate(0 56.800048828125 -1.5999908447265625)"><path d="M0.82 -0.22 C19.68 -0.77, 95 -3.44, 113.62 -3.77 M-0.2 -1.38 C18.46 -1.74, 93.51 -2.09, 112.67 -2.54" stroke="#1e1e1e" stroke-width="2" fill="none"></path></g><g transform="translate(154.36572855324494 110.39998779296911) rotate(0 56.800048828125 -1.5999908447265625)"><path d="M89.3 6.32 C96.88 3.18, 104.2 -1.68, 112.67 -2.54 M89.3 6.32 C97.83 2.37, 106.26 -1.44, 112.67 -2.54" stroke="#1e1e1e" stroke-width="2" fill="none"></path></g><g transform="translate(154.36572855324494 110.39998779296911) rotate(0 56.800048828125 -1.5999908447265625)"><path d="M89.07 -10.78 C96.67 -8.13, 104.06 -7.21, 112.67 -2.54 M89.07 -10.78 C97.86 -8.21, 106.37 -5.51, 112.67 -2.54" stroke="#1e1e1e" stroke-width="2" fill="none"></path></g></g><mask></mask><g transform="translate(217.17517679543244 10) rotate(0 200.390625 21.59999999999991)"><text x="0" y="34.762499999999996" font-family="Cascadia, Segoe UI Emoji" font-size="36px" fill="#1e1e1e" text-anchor="start" style="white-space: pre;" direction="ltr" dominant-baseline="alphabetic">(2+1)(3+1) codeword</text></g></svg>